<svg width="266" height="144" viewBox="0 0 266 144" fill="none" xmlns="http://www.w3.org/2000/svg">
<path d="M10.0311 106H2.84363C2.63529 106 2.53113 105.896 2.53113 105.688L2.65613 61.7188C2.65613 61.5521 2.73946 61.4688 2.90613 61.4688H15.2186C19.1353 61.4688 22.229 62.6667 24.4999 65.0625C26.7915 67.4375 27.9374 70.6771 27.9374 74.7812C27.9374 77.7812 27.3436 80.3958 26.1561 82.625C24.9478 84.8333 23.3853 86.5417 21.4686 87.75C19.552 88.9583 17.4686 89.5625 15.2186 89.5625H10.3436V105.688C10.3436 105.896 10.2395 106 10.0311 106ZM15.2186 69.0625L10.3436 69.125V81.8125H15.2186C16.5728 81.8125 17.7499 81.1667 18.7499 79.875C19.7499 78.5625 20.2499 76.8646 20.2499 74.7812C20.2499 73.1146 19.802 71.75 18.9061 70.6875C18.0103 69.6042 16.7811 69.0625 15.2186 69.0625ZM39.2811 106H32.0311C31.8645 106 31.7811 105.896 31.7811 105.688L31.9061 61.7188C31.9061 61.5521 31.9895 61.4688 32.1561 61.4688H45.0936C47.4061 61.4688 49.5311 62.0312 51.4686 63.1562C53.4061 64.2812 54.9478 65.7917 56.0936 67.6875C57.2603 69.5833 57.8436 71.7292 57.8436 74.125C57.8436 75.6875 57.604 77.1042 57.1249 78.375C56.6457 79.6458 56.0832 80.7188 55.4374 81.5938C54.8124 82.4688 54.2395 83.1146 53.7186 83.5312C56.0311 86.0938 57.1874 89.1042 57.1874 92.5625L57.2499 105.688C57.2499 105.896 57.1457 106 56.9374 106H49.6874C49.5207 106 49.4374 105.938 49.4374 105.812V92.5625C49.4374 91.0208 48.8957 89.6875 47.8124 88.5625C46.729 87.4375 45.3957 86.875 43.8124 86.875H39.5936L39.5311 105.688C39.5311 105.896 39.4478 106 39.2811 106ZM45.0936 69.125H39.5936V79.1875H45.0936C46.4061 79.1875 47.5728 78.6979 48.5936 77.7188C49.6353 76.7396 50.1561 75.5417 50.1561 74.125C50.1561 72.7708 49.6561 71.6042 48.6561 70.625C47.6561 69.625 46.4686 69.125 45.0936 69.125ZM74.4999 106.625C72.229 106.625 70.1353 106.042 68.2186 104.875C66.3228 103.708 64.7915 102.156 63.6249 100.219C62.479 98.2604 61.9061 96.1146 61.9061 93.7812L61.9686 73.5C61.9686 71.125 62.5415 68.9896 63.6874 67.0938C64.8124 65.1771 66.3332 63.6458 68.2499 62.5C70.1665 61.3333 72.2499 60.75 74.4999 60.75C76.8332 60.75 78.927 61.3229 80.7811 62.4688C82.6561 63.6146 84.1561 65.1562 85.2811 67.0938C86.427 69.0104 86.9999 71.1458 86.9999 73.5L87.0624 93.7812C87.0624 96.1146 86.4999 98.25 85.3749 100.188C84.229 102.146 82.7082 103.708 80.8124 104.875C78.9165 106.042 76.8124 106.625 74.4999 106.625ZM74.4999 98.9062C75.7915 98.9062 76.9165 98.3854 77.8749 97.3438C78.8332 96.2812 79.3124 95.0938 79.3124 93.7812L79.2499 73.5C79.2499 72.0833 78.802 70.8854 77.9061 69.9062C77.0103 68.9271 75.8749 68.4375 74.4999 68.4375C73.1874 68.4375 72.0624 68.9167 71.1249 69.875C70.1874 70.8333 69.7186 72.0417 69.7186 73.5V93.7812C69.7186 95.1771 70.1874 96.3854 71.1249 97.4062C72.0624 98.4062 73.1874 98.9062 74.4999 98.9062ZM99.4061 106H92.1561C91.9895 106 91.9061 105.896 91.9061 105.688L92.0311 61.7188C92.0311 61.5521 92.1145 61.4688 92.2811 61.4688H100.094C100.26 61.4688 100.406 61.5521 100.531 61.7188L106.375 70.1562L112.187 61.7188C112.312 61.5521 112.469 61.4688 112.656 61.4688H120.5C120.687 61.4688 120.781 61.5521 120.781 61.7188L120.906 105.688C120.906 105.896 120.823 106 120.656 106H113.406C113.239 106 113.156 105.896 113.156 105.688L113.094 73.0312L106.375 82.7812L99.7186 73.0312L99.6561 105.688C99.6561 105.896 99.5728 106 99.4061 106ZM138.125 106.625C135.854 106.625 133.76 106.042 131.844 104.875C129.948 103.708 128.417 102.156 127.25 100.219C126.104 98.2604 125.531 96.1146 125.531 93.7812L125.594 73.5C125.594 71.125 126.167 68.9896 127.312 67.0938C128.437 65.1771 129.958 63.6458 131.875 62.5C133.792 61.3333 135.875 60.75 138.125 60.75C140.458 60.75 142.552 61.3229 144.406 62.4688C146.281 63.6146 147.781 65.1562 148.906 67.0938C150.052 69.0104 150.625 71.1458 150.625 73.5L150.687 93.7812C150.687 96.1146 150.125 98.25 149 100.188C147.854 102.146 146.333 103.708 144.437 104.875C142.542 106.042 140.437 106.625 138.125 106.625ZM138.125 98.9062C139.417 98.9062 140.542 98.3854 141.5 97.3438C142.458 96.2812 142.937 95.0938 142.937 93.7812L142.875 73.5C142.875 72.0833 142.427 70.8854 141.531 69.9062C140.635 68.9271 139.5 68.4375 138.125 68.4375C136.812 68.4375 135.687 68.9167 134.75 69.875C133.812 70.8333 133.344 72.0417 133.344 73.5V93.7812C133.344 95.1771 133.812 96.3854 134.75 97.4062C135.687 98.4062 136.812 98.9062 138.125 98.9062ZM167.312 106.625C165 106.625 162.885 106.042 160.969 104.875C159.073 103.708 157.562 102.146 156.437 100.188C155.333 98.2083 154.781 96.0104 154.781 93.5938L154.844 73.625C154.844 71.25 155.385 69.1042 156.469 67.1875C157.552 65.25 159.042 63.6979 160.937 62.5312C162.854 61.3438 164.979 60.75 167.312 60.75C169.687 60.75 171.802 61.3229 173.656 62.4688C175.531 63.6146 177.021 65.1667 178.125 67.125C179.25 69.0625 179.812 71.2292 179.812 73.625V76.5625C179.812 76.7292 179.729 76.8125 179.562 76.8125H172.375C172.208 76.8125 172.125 76.7292 172.125 76.5625V73.625C172.125 72.2083 171.667 70.9896 170.75 69.9688C169.833 68.9479 168.687 68.4375 167.312 68.4375C165.792 68.4375 164.625 68.9583 163.812 70C163 71.0417 162.594 72.25 162.594 73.625V93.5938C162.594 95.1562 163.052 96.4375 163.969 97.4375C164.885 98.4167 166 98.9062 167.312 98.9062C168.687 98.9062 169.833 98.3646 170.75 97.2812C171.667 96.1771 172.125 94.9479 172.125 93.5938V90.625C172.125 90.4583 172.208 90.375 172.375 90.375H179.625C179.792 90.375 179.875 90.4583 179.875 90.625V93.5938C179.875 95.9896 179.312 98.1771 178.187 100.156C177.042 102.115 175.531 103.688 173.656 104.875C171.781 106.042 169.667 106.625 167.312 106.625ZM196.375 106.625C194.104 106.625 192.01 106.042 190.094 104.875C188.198 103.708 186.667 102.156 185.5 100.219C184.354 98.2604 183.781 96.1146 183.781 93.7812L183.844 73.5C183.844 71.125 184.417 68.9896 185.562 67.0938C186.687 65.1771 188.208 63.6458 190.125 62.5C192.042 61.3333 194.125 60.75 196.375 60.75C198.708 60.75 200.802 61.3229 202.656 62.4688C204.531 63.6146 206.031 65.1562 207.156 67.0938C208.302 69.0104 208.875 71.1458 208.875 73.5L208.937 93.7812C208.937 96.1146 208.375 98.25 207.25 100.188C206.104 102.146 204.583 103.708 202.687 104.875C200.792 106.042 198.687 106.625 196.375 106.625ZM196.375 98.9062C197.667 98.9062 198.792 98.3854 199.75 97.3438C200.708 96.2812 201.187 95.0938 201.187 93.7812L201.125 73.5C201.125 72.0833 200.677 70.8854 199.781 69.9062C198.885 68.9271 197.75 68.4375 196.375 68.4375C195.062 68.4375 193.937 68.9167 193 69.875C192.062 70.8333 191.594 72.0417 191.594 73.5V93.7812C191.594 95.1771 192.062 96.3854 193 97.4062C193.937 98.4062 195.062 98.9062 196.375 98.9062ZM234.719 106H214.031C213.864 106 213.781 105.896 213.781 105.688L213.844 61.7188C213.844 61.5521 213.927 61.4688 214.094 61.4688H234.656C234.823 61.4688 234.906 61.5729 234.906 61.7812V68.9375C234.906 69.1042 234.823 69.1875 234.656 69.1875H221.531V79.1875H234.656C234.823 79.1875 234.906 79.2708 234.906 79.4375L234.969 86.6875C234.969 86.8542 234.885 86.9375 234.719 86.9375H221.531V98.125H234.719C234.885 98.125 234.969 98.2292 234.969 98.4375V105.75C234.969 105.917 234.885 106 234.719 106ZM251.531 106.625C249.26 106.625 247.167 106.042 245.25 104.875C243.354 103.708 241.833 102.156 240.687 100.219C239.562 98.2604 239 96.1146 239 93.7812V90.8438C239 90.6146 239.104 90.5 239.312 90.5H246.5C246.667 90.5 246.75 90.6146 246.75 90.8438V93.7812C246.75 95.1771 247.219 96.3854 248.156 97.4062C249.094 98.4062 250.219 98.9062 251.531 98.9062C252.864 98.9062 254 98.3958 254.937 97.375C255.875 96.3333 256.344 95.1354 256.344 93.7812C256.344 92.2188 255.323 90.8542 253.281 89.6875C252.948 89.4792 252.51 89.2292 251.969 88.9375C251.448 88.625 250.823 88.2708 250.094 87.875C249.364 87.4792 248.656 87.0938 247.969 86.7188C247.281 86.3229 246.614 85.9479 245.969 85.5938C243.635 84.2188 241.896 82.5 240.75 80.4375C239.625 78.3542 239.062 76.0208 239.062 73.4375C239.062 71.0625 239.646 68.9167 240.812 67C241.979 65.1042 243.5 63.6042 245.375 62.5C247.271 61.375 249.323 60.8125 251.531 60.8125C253.802 60.8125 255.885 61.375 257.781 62.5C259.677 63.6458 261.187 65.1667 262.312 67.0625C263.458 68.9583 264.031 71.0833 264.031 73.4375V78.6875C264.031 78.8542 263.948 78.9375 263.781 78.9375H256.594C256.427 78.9375 256.344 78.8542 256.344 78.6875L256.281 73.4375C256.281 71.9375 255.812 70.7188 254.875 69.7812C253.937 68.8438 252.823 68.375 251.531 68.375C250.219 68.375 249.094 68.875 248.156 69.875C247.219 70.875 246.75 72.0625 246.75 73.4375C246.75 74.8333 247.042 76 247.625 76.9375C248.229 77.875 249.323 78.7708 250.906 79.625C251.073 79.7083 251.458 79.9167 252.062 80.25C252.667 80.5833 253.333 80.9583 254.062 81.375C254.812 81.7708 255.489 82.1354 256.094 82.4688C256.698 82.7812 257.062 82.9688 257.187 83.0312C259.312 84.2188 260.989 85.6771 262.219 87.4062C263.469 89.1354 264.094 91.2604 264.094 93.7812C264.094 96.2188 263.531 98.4062 262.406 100.344C261.26 102.281 259.739 103.812 257.844 104.938C255.948 106.062 253.844 106.625 251.531 106.625Z" fill="#FFFEF0"/>
<path d="M159.719 113.062H166.125C166.271 113.062 166.396 112.979 166.5 112.812L172.469 101.75C172.552 101.562 172.469 101.469 172.219 101.469H164.906C164.719 101.469 164.615 101.562 164.594 101.75L159.469 112.812C159.427 112.979 159.51 113.062 159.719 113.062Z" fill="#FFFEF0"/>
<path d="M201.5 58.4688C200.271 58.4688 199.167 58.2396 198.187 57.7812C197.354 57.4271 196.469 57.0104 195.531 56.5312C194.615 56.0312 193.833 55.7812 193.187 55.7812C192.375 55.7812 191.75 55.9896 191.312 56.4062C190.896 56.8021 190.687 57.3021 190.687 57.9062C190.687 58.0729 190.604 58.1562 190.437 58.1562H184.656C184.49 58.1562 184.406 58.0729 184.406 57.9062C184.406 56.8229 184.74 55.6771 185.406 54.4688C186.073 53.3021 187.01 52.3125 188.219 51.5C189.427 50.6875 190.885 50.2812 192.594 50.2812C193.823 50.2812 194.917 50.4896 195.875 50.9062C196.625 51.2396 197.427 51.6354 198.281 52.0938C199.135 52.5521 199.823 52.7812 200.344 52.7812C200.948 52.7812 201.469 52.5938 201.906 52.2188C202.365 51.8229 202.594 51.2188 202.594 50.4062C202.594 50.2396 202.677 50.1562 202.844 50.1562H208.594C208.76 50.1562 208.844 50.2396 208.844 50.4062C208.844 52.1562 208.5 53.625 207.812 54.8125C207.104 56.0208 206.177 56.9375 205.031 57.5625C203.906 58.1667 202.729 58.4688 201.5 58.4688Z" fill="#FFFEF0"/>
</svg>
