<svg width="361" height="64" viewBox="0 0 361 64" fill="none" xmlns="http://www.w3.org/2000/svg">
<path d="M63.5628 52.625C61.2503 52.625 59.1357 52.0417 57.2191 50.875C55.3232 49.7083 53.8128 48.1458 52.6878 46.1875C51.5836 44.2083 51.0316 42.0104 51.0316 39.5938L51.0941 19.625C51.0941 17.25 51.6357 15.1042 52.7191 13.1875C53.8024 11.25 55.292 9.69792 57.1878 8.53125C59.1045 7.34375 61.2295 6.75 63.5628 6.75C65.9378 6.75 68.0524 7.32292 69.9066 8.46875C71.7816 9.61458 73.2711 11.1667 74.3753 13.125C75.5003 15.0625 76.0628 17.2292 76.0628 19.625V22.5625C76.0628 22.7292 75.9795 22.8125 75.8128 22.8125H68.6253C68.4586 22.8125 68.3753 22.7292 68.3753 22.5625V19.625C68.3753 18.2083 67.917 16.9896 67.0003 15.9688C66.0836 14.9479 64.9378 14.4375 63.5628 14.4375C62.042 14.4375 60.8753 14.9583 60.0628 16C59.2503 17.0417 58.8441 18.25 58.8441 19.625V39.5938C58.8441 41.1562 59.3024 42.4375 60.2191 43.4375C61.1357 44.4167 62.2503 44.9062 63.5628 44.9062C64.9378 44.9062 66.0836 44.3646 67.0003 43.2812C67.917 42.1771 68.3753 40.9479 68.3753 39.5938V36.625C68.3753 36.4583 68.4586 36.375 68.6253 36.375H75.8753C76.042 36.375 76.1253 36.4583 76.1253 36.625V39.5938C76.1253 41.9896 75.5628 44.1771 74.4378 46.1562C73.292 48.1146 71.7816 49.6875 69.9066 50.875C68.0316 52.0417 65.917 52.625 63.5628 52.625ZM78.6253 51.6875L86.5628 7.71875C86.6045 7.55208 86.7086 7.46875 86.8753 7.46875H96.1566C96.3232 7.46875 96.4274 7.55208 96.4691 7.71875L104.094 51.6875C104.115 51.8958 104.032 52 103.844 52H96.7503C96.542 52 96.4274 51.8958 96.4066 51.6875L95.7191 47H87.0003L86.3128 51.6875C86.292 51.8958 86.1878 52 86.0003 52H78.8753C78.7086 52 78.6253 51.8958 78.6253 51.6875ZM91.1566 22.1875L88.2816 40.1562H94.4378L91.8128 22.1875L91.4378 19.8125L91.1566 22.1875ZM117.875 52H110.657C110.469 52 110.375 51.8958 110.375 51.6875V15.1875H102.063C101.854 15.1875 101.75 15.0833 101.75 14.875L101.813 7.71875C101.813 7.55208 101.896 7.46875 102.063 7.46875H126.375C126.604 7.46875 126.719 7.55208 126.719 7.71875V14.875C126.719 15.0833 126.636 15.1875 126.469 15.1875H118.063L118.125 51.6875C118.125 51.8958 118.042 52 117.875 52ZM150.782 52H130.094C129.927 52 129.844 51.8958 129.844 51.6875L129.907 7.71875C129.907 7.55208 129.99 7.46875 130.157 7.46875H150.719C150.886 7.46875 150.969 7.57292 150.969 7.78125V14.9375C150.969 15.1042 150.886 15.1875 150.719 15.1875H137.594V25.1875H150.719C150.886 25.1875 150.969 25.2708 150.969 25.4375L151.032 32.6875C151.032 32.8542 150.948 32.9375 150.782 32.9375H137.594V44.125H150.782C150.948 44.125 151.032 44.2292 151.032 44.4375V51.75C151.032 51.9167 150.948 52 150.782 52ZM168.438 52.625C166.125 52.625 164.042 52.0521 162.188 50.9062C160.313 49.7604 158.802 48.2188 157.657 46.2812C156.532 44.3438 155.969 42.1771 155.969 39.7812V19.5C155.969 17.1667 156.542 15.0417 157.688 13.125C158.813 11.1875 160.323 9.64583 162.219 8.5C164.115 7.33333 166.188 6.75 168.438 6.75C170.792 6.75 172.917 7.3125 174.813 8.4375C176.709 9.58333 178.209 11.1146 179.313 13.0312C180.438 14.9479 181 17.1042 181 19.5V22.4375C181 22.6042 180.896 22.6875 180.688 22.6875H173.5C173.334 22.6875 173.25 22.6042 173.25 22.4375V20C173.25 18.375 172.792 17.0312 171.875 15.9688C170.959 14.9062 169.813 14.375 168.438 14.375C167.209 14.375 166.115 14.8854 165.157 15.9062C164.198 16.9271 163.719 18.125 163.719 19.5V39.7812C163.719 41.1771 164.188 42.3854 165.125 43.4062C166.063 44.4062 167.167 44.9062 168.438 44.9062C169.813 44.9062 170.959 44.4167 171.875 43.4375C172.792 42.4375 173.25 41.2188 173.25 39.7812V36.625H168.782C168.552 36.625 168.438 36.5208 168.438 36.3125V29.1562C168.438 28.9479 168.552 28.8438 168.782 28.8438H180.75C180.917 28.8438 181 28.9479 181 29.1562V39.7812C181 42.1771 180.438 44.3438 179.313 46.2812C178.167 48.2188 176.657 49.7604 174.782 50.9062C172.907 52.0521 170.792 52.625 168.438 52.625ZM197.375 52.625C195.104 52.625 193.011 52.0417 191.094 50.875C189.198 49.7083 187.667 48.1562 186.5 46.2188C185.354 44.2604 184.782 42.1146 184.782 39.7812L184.844 19.5C184.844 17.125 185.417 14.9896 186.563 13.0938C187.688 11.1771 189.209 9.64583 191.125 8.5C193.042 7.33333 195.125 6.75 197.375 6.75C199.709 6.75 201.802 7.32292 203.657 8.46875C205.532 9.61458 207.032 11.1562 208.157 13.0938C209.302 15.0104 209.875 17.1458 209.875 19.5L209.938 39.7812C209.938 42.1146 209.375 44.25 208.25 46.1875C207.104 48.1458 205.584 49.7083 203.688 50.875C201.792 52.0417 199.688 52.625 197.375 52.625ZM197.375 44.9062C198.667 44.9062 199.792 44.3854 200.75 43.3438C201.709 42.2812 202.188 41.0938 202.188 39.7812L202.125 19.5C202.125 18.0833 201.677 16.8854 200.782 15.9062C199.886 14.9271 198.75 14.4375 197.375 14.4375C196.063 14.4375 194.938 14.9167 194 15.875C193.063 16.8333 192.594 18.0417 192.594 19.5V39.7812C192.594 41.1771 193.063 42.3854 194 43.4062C194.938 44.4062 196.063 44.9062 197.375 44.9062ZM222.282 52H215.032C214.865 52 214.782 51.8958 214.782 51.6875L214.907 7.71875C214.907 7.55208 214.99 7.46875 215.157 7.46875H228.094C230.407 7.46875 232.532 8.03125 234.469 9.15625C236.407 10.2812 237.948 11.7917 239.094 13.6875C240.261 15.5833 240.844 17.7292 240.844 20.125C240.844 21.6875 240.604 23.1042 240.125 24.375C239.646 25.6458 239.084 26.7188 238.438 27.5938C237.813 28.4688 237.24 29.1146 236.719 29.5312C239.032 32.0938 240.188 35.1042 240.188 38.5625L240.25 51.6875C240.25 51.8958 240.146 52 239.938 52H232.688C232.521 52 232.438 51.9375 232.438 51.8125V38.5625C232.438 37.0208 231.896 35.6875 230.813 34.5625C229.729 33.4375 228.396 32.875 226.813 32.875H222.594L222.532 51.6875C222.532 51.8958 222.448 52 222.282 52ZM228.094 15.125H222.594V25.1875H228.094C229.407 25.1875 230.573 24.6979 231.594 23.7188C232.636 22.7396 233.157 21.5417 233.157 20.125C233.157 18.7708 232.657 17.6042 231.657 16.625C230.657 15.625 229.469 15.125 228.094 15.125ZM253.219 52H245.969C245.761 52 245.657 51.8958 245.657 51.6875L245.719 7.71875C245.719 7.55208 245.802 7.46875 245.969 7.46875H253.157C253.323 7.46875 253.407 7.55208 253.407 7.71875L253.469 51.6875C253.469 51.8958 253.386 52 253.219 52ZM256.938 51.6875L264.875 7.71875C264.917 7.55208 265.021 7.46875 265.188 7.46875H274.469C274.636 7.46875 274.74 7.55208 274.782 7.71875L282.407 51.6875C282.427 51.8958 282.344 52 282.157 52H275.063C274.854 52 274.74 51.8958 274.719 51.6875L274.032 47H265.313L264.625 51.6875C264.604 51.8958 264.5 52 264.313 52H257.188C257.021 52 256.938 51.8958 256.938 51.6875ZM269.469 22.1875L266.594 40.1562H272.75L270.125 22.1875L269.75 19.8125L269.469 22.1875ZM297.282 52.625C295.011 52.625 292.917 52.0417 291 50.875C289.104 49.7083 287.584 48.1562 286.438 46.2188C285.313 44.2604 284.75 42.1146 284.75 39.7812V36.8438C284.75 36.6146 284.854 36.5 285.063 36.5H292.25C292.417 36.5 292.5 36.6146 292.5 36.8438V39.7812C292.5 41.1771 292.969 42.3854 293.907 43.4062C294.844 44.4062 295.969 44.9062 297.282 44.9062C298.615 44.9062 299.75 44.3958 300.688 43.375C301.625 42.3333 302.094 41.1354 302.094 39.7812C302.094 38.2188 301.073 36.8542 299.032 35.6875C298.698 35.4792 298.261 35.2292 297.719 34.9375C297.198 34.625 296.573 34.2708 295.844 33.875C295.115 33.4792 294.407 33.0938 293.719 32.7188C293.032 32.3229 292.365 31.9479 291.719 31.5938C289.386 30.2188 287.646 28.5 286.5 26.4375C285.375 24.3542 284.813 22.0208 284.813 19.4375C284.813 17.0625 285.396 14.9167 286.563 13C287.729 11.1042 289.25 9.60417 291.125 8.5C293.021 7.375 295.073 6.8125 297.282 6.8125C299.552 6.8125 301.636 7.375 303.532 8.5C305.427 9.64583 306.938 11.1667 308.063 13.0625C309.209 14.9583 309.782 17.0833 309.782 19.4375V24.6875C309.782 24.8542 309.698 24.9375 309.532 24.9375H302.344C302.177 24.9375 302.094 24.8542 302.094 24.6875L302.032 19.4375C302.032 17.9375 301.563 16.7188 300.625 15.7812C299.688 14.8438 298.573 14.375 297.282 14.375C295.969 14.375 294.844 14.875 293.907 15.875C292.969 16.875 292.5 18.0625 292.5 19.4375C292.5 20.8333 292.792 22 293.375 22.9375C293.979 23.875 295.073 24.7708 296.657 25.625C296.823 25.7083 297.209 25.9167 297.813 26.25C298.417 26.5833 299.084 26.9583 299.813 27.375C300.563 27.7708 301.24 28.1354 301.844 28.4688C302.448 28.7812 302.813 28.9688 302.938 29.0312C305.063 30.2188 306.74 31.6771 307.969 33.4062C309.219 35.1354 309.844 37.2604 309.844 39.7812C309.844 42.2188 309.282 44.4062 308.157 46.3438C307.011 48.2812 305.49 49.8125 303.594 50.9375C301.698 52.0625 299.594 52.625 297.282 52.625Z" fill="#92C046"/>
<path d="M12.68 22.96L43.68 22.96" stroke="#92C046" stroke-width="7" stroke-linecap="round"/>
<path d="M4 11L43.68 11" stroke="#92C046" stroke-width="7" stroke-linecap="round"/>
<path d="M22.6 34L43.68 34" stroke="#92C046" stroke-width="7" stroke-linecap="round"/>
<path d="M348 22.96L317 22.96" stroke="#92C046" stroke-width="7" stroke-linecap="round"/>
<path d="M356.68 11L317 11" stroke="#92C046" stroke-width="7" stroke-linecap="round"/>
<path d="M338.08 34L317 34" stroke="#92C046" stroke-width="7" stroke-linecap="round"/>
</svg>
