<svg width="262" height="68" viewBox="0 0 262 68" fill="none" xmlns="http://www.w3.org/2000/svg">
<path d="M65.2975 65.9628C102.635 61.242 140.692 60.8853 178.272 60.8853" stroke="#92C046" stroke-width="3" stroke-linecap="round"/>
<path d="M20.3125 45.9375L8.84375 46C8.63542 46 8.53125 45.8958 8.53125 45.6875L8.65625 1.71875C8.65625 1.55208 8.73958 1.46875 8.90625 1.46875L20.875 1.40625C23.25 1.34375 25.3958 1.88542 27.3125 3.03125C29.25 4.17708 30.7917 5.72917 31.9375 7.6875C33.1042 9.625 33.6875 11.7708 33.6875 14.125V32.5C33.6875 34.9583 33.0938 37.2083 31.9062 39.25C30.6979 41.2708 29.0938 42.8854 27.0938 44.0938C25.0938 45.2812 22.8333 45.8958 20.3125 45.9375ZM20.875 9.0625L16.4062 9.125L16.3438 38.125H20.3125C21.8958 38.125 23.2292 37.5729 24.3125 36.4688C25.3958 35.3646 25.9375 34.0417 25.9375 32.5V14.0625C25.9375 12.7083 25.4375 11.5312 24.4375 10.5312C23.4375 9.51042 22.25 9.02083 20.875 9.0625ZM59.6562 46H38.9688C38.8021 46 38.7188 45.8958 38.7188 45.6875L38.7812 1.71875C38.7812 1.55208 38.8646 1.46875 39.0312 1.46875H59.5938C59.7604 1.46875 59.8438 1.57292 59.8438 1.78125V8.9375C59.8438 9.10417 59.7604 9.1875 59.5938 9.1875H46.4688V19.1875H59.5938C59.7604 19.1875 59.8438 19.2708 59.8438 19.4375L59.9062 26.6875C59.9062 26.8542 59.8229 26.9375 59.6562 26.9375H46.4688V38.125H59.6562C59.8229 38.125 59.9062 38.2292 59.9062 38.4375V45.75C59.9062 45.9167 59.8229 46 59.6562 46ZM76.4688 46.625C74.1979 46.625 72.1042 46.0417 70.1875 44.875C68.2917 43.7083 66.7708 42.1562 65.625 40.2188C64.5 38.2604 63.9375 36.1146 63.9375 33.7812V30.8438C63.9375 30.6146 64.0417 30.5 64.25 30.5H71.4375C71.6042 30.5 71.6875 30.6146 71.6875 30.8438V33.7812C71.6875 35.1771 72.1562 36.3854 73.0938 37.4062C74.0312 38.4062 75.1562 38.9062 76.4688 38.9062C77.8021 38.9062 78.9375 38.3958 79.875 37.375C80.8125 36.3333 81.2812 35.1354 81.2812 33.7812C81.2812 32.2188 80.2604 30.8542 78.2188 29.6875C77.8854 29.4792 77.4479 29.2292 76.9062 28.9375C76.3854 28.625 75.7604 28.2708 75.0312 27.875C74.3021 27.4792 73.5938 27.0938 72.9062 26.7188C72.2188 26.3229 71.5521 25.9479 70.9062 25.5938C68.5729 24.2188 66.8333 22.5 65.6875 20.4375C64.5625 18.3542 64 16.0208 64 13.4375C64 11.0625 64.5833 8.91667 65.75 7C66.9167 5.10417 68.4375 3.60417 70.3125 2.5C72.2083 1.375 74.2604 0.8125 76.4688 0.8125C78.7396 0.8125 80.8229 1.375 82.7188 2.5C84.6146 3.64583 86.125 5.16667 87.25 7.0625C88.3958 8.95833 88.9688 11.0833 88.9688 13.4375V18.6875C88.9688 18.8542 88.8854 18.9375 88.7188 18.9375H81.5312C81.3646 18.9375 81.2812 18.8542 81.2812 18.6875L81.2188 13.4375C81.2188 11.9375 80.75 10.7188 79.8125 9.78125C78.875 8.84375 77.7604 8.375 76.4688 8.375C75.1562 8.375 74.0312 8.875 73.0938 9.875C72.1562 10.875 71.6875 12.0625 71.6875 13.4375C71.6875 14.8333 71.9792 16 72.5625 16.9375C73.1667 17.875 74.2604 18.7708 75.8438 19.625C76.0104 19.7083 76.3958 19.9167 77 20.25C77.6042 20.5833 78.2708 20.9583 79 21.375C79.75 21.7708 80.4271 22.1354 81.0312 22.4688C81.6354 22.7812 82 22.9688 82.125 23.0312C84.25 24.2188 85.9271 25.6771 87.1562 27.4062C88.4062 29.1354 89.0312 31.2604 89.0312 33.7812C89.0312 36.2188 88.4688 38.4062 87.3438 40.3438C86.1979 42.2812 84.6771 43.8125 82.7812 44.9375C80.8854 46.0625 78.7812 46.625 76.4688 46.625ZM105.812 46H98.5938C98.4062 46 98.3125 45.8958 98.3125 45.6875V9.1875H90C89.7917 9.1875 89.6875 9.08333 89.6875 8.875L89.75 1.71875C89.75 1.55208 89.8333 1.46875 90 1.46875H114.312C114.542 1.46875 114.656 1.55208 114.656 1.71875V8.875C114.656 9.08333 114.573 9.1875 114.406 9.1875H106L106.062 45.6875C106.062 45.8958 105.979 46 105.812 46ZM111.75 45.6875L119.688 1.71875C119.729 1.55208 119.833 1.46875 120 1.46875H129.281C129.448 1.46875 129.552 1.55208 129.594 1.71875L137.219 45.6875C137.24 45.8958 137.156 46 136.969 46H129.875C129.667 46 129.552 45.8958 129.531 45.6875L128.844 41H120.125L119.438 45.6875C119.417 45.8958 119.312 46 119.125 46H112C111.833 46 111.75 45.8958 111.75 45.6875ZM124.281 16.1875L121.406 34.1562H127.562L124.938 16.1875L124.562 13.8125L124.281 16.1875ZM160.969 50.0938L156.562 45.625C155 46.2917 153.396 46.625 151.75 46.625C149.479 46.625 147.396 46.0521 145.5 44.9062C143.583 43.7604 142.042 42.2083 140.875 40.25C139.729 38.2708 139.156 36.1146 139.156 33.7812L139.219 13.5C139.219 11.2292 139.781 9.125 140.906 7.1875C142.01 5.25 143.51 3.69792 145.406 2.53125C147.302 1.34375 149.417 0.75 151.75 0.75C154.021 0.75 156.104 1.3125 158 2.4375C159.896 3.58333 161.406 5.11458 162.531 7.03125C163.677 8.94792 164.25 11.1042 164.25 13.5L164.312 33.7812C164.312 35.0104 164.135 36.2083 163.781 37.375C163.448 38.5208 163 39.5833 162.438 40.5625L166.406 44.5938C166.615 44.7604 166.635 44.9062 166.469 45.0312L161.438 50.0938C161.292 50.2188 161.135 50.2188 160.969 50.0938ZM151.75 38.9062C153.208 38.9062 154.375 38.3646 155.25 37.2812C156.125 36.1771 156.562 35.0104 156.562 33.7812L156.5 13.5C156.5 12.125 156.052 10.9375 155.156 9.9375C154.26 8.9375 153.125 8.4375 151.75 8.4375C150.312 8.4375 149.156 8.94792 148.281 9.96875C147.406 10.9896 146.969 12.1667 146.969 13.5V33.7812C146.969 35.3229 147.469 36.5625 148.469 37.5C149.469 38.4375 150.562 38.9062 151.75 38.9062ZM181.5 46.625C179.25 46.625 177.167 46.0417 175.25 44.875C173.333 43.7083 171.802 42.1458 170.656 40.1875C169.531 38.2083 168.969 36.0521 168.969 33.7188L169.094 1.71875C169.094 1.55208 169.177 1.46875 169.344 1.46875H176.531C176.698 1.46875 176.781 1.55208 176.781 1.71875V33.7188C176.781 35.1562 177.24 36.3854 178.156 37.4062C179.073 38.4062 180.188 38.9062 181.5 38.9062C182.875 38.9062 184.021 38.4062 184.938 37.4062C185.854 36.3854 186.312 35.1562 186.312 33.7188V1.71875C186.312 1.55208 186.396 1.46875 186.562 1.46875H193.75C193.917 1.46875 194 1.55208 194 1.71875L194.125 33.7188C194.125 36.0729 193.562 38.2396 192.438 40.2188C191.292 42.1771 189.771 43.7396 187.875 44.9062C185.979 46.0521 183.854 46.625 181.5 46.625ZM220.094 46H199.406C199.24 46 199.156 45.8958 199.156 45.6875L199.219 1.71875C199.219 1.55208 199.302 1.46875 199.469 1.46875H220.031C220.198 1.46875 220.281 1.57292 220.281 1.78125V8.9375C220.281 9.10417 220.198 9.1875 220.031 9.1875H206.906V19.1875H220.031C220.198 19.1875 220.281 19.2708 220.281 19.4375L220.344 26.6875C220.344 26.8542 220.26 26.9375 220.094 26.9375H206.906V38.125H220.094C220.26 38.125 220.344 38.2292 220.344 38.4375V45.75C220.344 45.9167 220.26 46 220.094 46ZM236.906 46.625C234.635 46.625 232.542 46.0417 230.625 44.875C228.729 43.7083 227.208 42.1562 226.062 40.2188C224.938 38.2604 224.375 36.1146 224.375 33.7812V30.8438C224.375 30.6146 224.479 30.5 224.688 30.5H231.875C232.042 30.5 232.125 30.6146 232.125 30.8438V33.7812C232.125 35.1771 232.594 36.3854 233.531 37.4062C234.469 38.4062 235.594 38.9062 236.906 38.9062C238.24 38.9062 239.375 38.3958 240.312 37.375C241.25 36.3333 241.719 35.1354 241.719 33.7812C241.719 32.2188 240.698 30.8542 238.656 29.6875C238.323 29.4792 237.885 29.2292 237.344 28.9375C236.823 28.625 236.198 28.2708 235.469 27.875C234.74 27.4792 234.031 27.0938 233.344 26.7188C232.656 26.3229 231.99 25.9479 231.344 25.5938C229.01 24.2188 227.271 22.5 226.125 20.4375C225 18.3542 224.438 16.0208 224.438 13.4375C224.438 11.0625 225.021 8.91667 226.188 7C227.354 5.10417 228.875 3.60417 230.75 2.5C232.646 1.375 234.698 0.8125 236.906 0.8125C239.177 0.8125 241.26 1.375 243.156 2.5C245.052 3.64583 246.562 5.16667 247.688 7.0625C248.833 8.95833 249.406 11.0833 249.406 13.4375V18.6875C249.406 18.8542 249.323 18.9375 249.156 18.9375H241.969C241.802 18.9375 241.719 18.8542 241.719 18.6875L241.656 13.4375C241.656 11.9375 241.188 10.7188 240.25 9.78125C239.312 8.84375 238.198 8.375 236.906 8.375C235.594 8.375 234.469 8.875 233.531 9.875C232.594 10.875 232.125 12.0625 232.125 13.4375C232.125 14.8333 232.417 16 233 16.9375C233.604 17.875 234.698 18.7708 236.281 19.625C236.448 19.7083 236.833 19.9167 237.438 20.25C238.042 20.5833 238.708 20.9583 239.438 21.375C240.188 21.7708 240.865 22.1354 241.469 22.4688C242.073 22.7812 242.438 22.9688 242.562 23.0312C244.688 24.2188 246.365 25.6771 247.594 27.4062C248.844 29.1354 249.469 31.2604 249.469 33.7812C249.469 36.2188 248.906 38.4062 247.781 40.3438C246.635 42.2812 245.115 43.8125 243.219 44.9375C241.323 46.0625 239.219 46.625 236.906 46.625Z" fill="#92C046"/>
<path d="M2 61C45.2368 59.6588 88.2518 54.2112 131.525 53.2532C174.408 52.3038 217.195 54.1543 260 56.6424" stroke="#92C046" stroke-width="3" stroke-linecap="round"/>
</svg>
