<svg width="490" height="108" viewBox="0 0 490 108" fill="none" xmlns="http://www.w3.org/2000/svg">
<rect y="32" width="490" height="61" rx="15" fill="#92C046"/>
<path d="M59.625 44.3516C58.7031 44.3516 57.875 44.1797 57.1406 43.8359C56.5156 43.5703 55.8516 43.2578 55.1484 42.8984C54.4609 42.5234 53.875 42.3359 53.3906 42.3359C52.7812 42.3359 52.3125 42.4922 51.9844 42.8047C51.6719 43.1016 51.5156 43.4766 51.5156 43.9297C51.5156 44.0547 51.4531 44.1172 51.3281 44.1172H46.9922C46.8672 44.1172 46.8047 44.0547 46.8047 43.9297C46.8047 43.1172 47.0547 42.2578 47.5547 41.3516C48.0547 40.4766 48.7578 39.7344 49.6641 39.125C50.5703 38.5156 51.6641 38.2109 52.9453 38.2109C53.8672 38.2109 54.6875 38.3672 55.4062 38.6797C55.9688 38.9297 56.5703 39.2266 57.2109 39.5703C57.8516 39.9141 58.3672 40.0859 58.7578 40.0859C59.2109 40.0859 59.6016 39.9453 59.9297 39.6641C60.2734 39.3672 60.4453 38.9141 60.4453 38.3047C60.4453 38.1797 60.5078 38.1172 60.6328 38.1172H64.9453C65.0703 38.1172 65.1328 38.1797 65.1328 38.3047C65.1328 39.6172 64.875 40.7188 64.3594 41.6094C63.8281 42.5156 63.1328 43.2031 62.2734 43.6719C61.4297 44.125 60.5469 44.3516 59.625 44.3516Z" fill="#FFFEF0"/>
<path d="M30.4141 80H25.6094C25.3594 80 25.2344 79.8906 25.2344 79.6719L25.1875 46.9766C25.1875 46.7266 25.3125 46.6016 25.5625 46.6016H29.8984L38.0078 65.5156L37.7734 46.9766C37.7734 46.7266 37.9141 46.6016 38.1953 46.6016H42.9531C43.1406 46.6016 43.2344 46.7266 43.2344 46.9766L43.2812 79.7188C43.2812 79.9062 43.2031 80 43.0469 80H38.8281L30.5078 62.3281L30.8594 79.625C30.8594 79.875 30.7109 80 30.4141 80ZM45.8359 79.7656L51.7891 46.7891C51.8203 46.6641 51.8984 46.6016 52.0234 46.6016H58.9844C59.1094 46.6016 59.1875 46.6641 59.2188 46.7891L64.9375 79.7656C64.9531 79.9219 64.8906 80 64.75 80H59.4297C59.2734 80 59.1875 79.9219 59.1719 79.7656L58.6562 76.25H52.1172L51.6016 79.7656C51.5859 79.9219 51.5078 80 51.3672 80H46.0234C45.8984 80 45.8359 79.9219 45.8359 79.7656ZM55.2344 57.6406L53.0781 71.1172H57.6953L55.7266 57.6406L55.4453 55.8594L55.2344 57.6406ZM75.8359 80.4688C74.1328 80.4688 72.5625 80.0312 71.125 79.1562C69.7031 78.2812 68.5547 77.1172 67.6797 75.6641C66.8203 74.1953 66.3906 72.5859 66.3906 70.8359L66.4375 55.625C66.4375 53.8438 66.8672 52.2422 67.7266 50.8203C68.5703 49.3828 69.7109 48.2344 71.1484 47.375C72.5859 46.5 74.1484 46.0625 75.8359 46.0625C77.5859 46.0625 79.1562 46.4922 80.5469 47.3516C81.9531 48.2109 83.0781 49.3672 83.9219 50.8203C84.7812 52.2578 85.2109 53.8594 85.2109 55.625L85.2578 70.8359C85.2578 72.5859 84.8359 74.1875 83.9922 75.6406C83.1328 77.1094 81.9922 78.2812 80.5703 79.1562C79.1484 80.0312 77.5703 80.4688 75.8359 80.4688ZM75.8359 74.6797C76.8047 74.6797 77.6484 74.2891 78.3672 73.5078C79.0859 72.7109 79.4453 71.8203 79.4453 70.8359L79.3984 55.625C79.3984 54.5625 79.0625 53.6641 78.3906 52.9297C77.7188 52.1953 76.8672 51.8281 75.8359 51.8281C74.8516 51.8281 74.0078 52.1875 73.3047 52.9062C72.6016 53.625 72.25 54.5312 72.25 55.625V70.8359C72.25 71.8828 72.6016 72.7891 73.3047 73.5547C74.0078 74.3047 74.8516 74.6797 75.8359 74.6797ZM99.7422 79.7656L105.695 46.7891C105.727 46.6641 105.805 46.6016 105.93 46.6016H112.891C113.016 46.6016 113.094 46.6641 113.125 46.7891L118.844 79.7656C118.859 79.9219 118.797 80 118.656 80H113.336C113.18 80 113.094 79.9219 113.078 79.7656L112.562 76.25H106.023L105.508 79.7656C105.492 79.9219 105.414 80 105.273 80H99.9297C99.8047 80 99.7422 79.9219 99.7422 79.7656ZM109.141 57.6406L106.984 71.1172H111.602L109.633 57.6406L109.352 55.8594L109.141 57.6406ZM129.695 80.4688C127.961 80.4688 126.375 80.0312 124.938 79.1562C123.516 78.2812 122.383 77.1094 121.539 75.6406C120.711 74.1562 120.297 72.5078 120.297 70.6953L120.344 55.7188C120.344 53.9375 120.75 52.3281 121.562 50.8906C122.375 49.4375 123.492 48.2734 124.914 47.3984C126.352 46.5078 127.945 46.0625 129.695 46.0625C131.477 46.0625 133.062 46.4922 134.453 47.3516C135.859 48.2109 136.977 49.375 137.805 50.8438C138.648 52.2969 139.07 53.9219 139.07 55.7188V57.9219C139.07 58.0469 139.008 58.1094 138.883 58.1094H133.492C133.367 58.1094 133.305 58.0469 133.305 57.9219V55.7188C133.305 54.6562 132.961 53.7422 132.273 52.9766C131.586 52.2109 130.727 51.8281 129.695 51.8281C128.555 51.8281 127.68 52.2188 127.07 53C126.461 53.7812 126.156 54.6875 126.156 55.7188V70.6953C126.156 71.8672 126.5 72.8281 127.188 73.5781C127.875 74.3125 128.711 74.6797 129.695 74.6797C130.727 74.6797 131.586 74.2734 132.273 73.4609C132.961 72.6328 133.305 71.7109 133.305 70.6953V68.4688C133.305 68.3438 133.367 68.2812 133.492 68.2812H138.93C139.055 68.2812 139.117 68.3438 139.117 68.4688V70.6953C139.117 72.4922 138.695 74.1328 137.852 75.6172C136.992 77.0859 135.859 78.2656 134.453 79.1562C133.047 80.0312 131.461 80.4688 129.695 80.4688ZM148.234 80H142.797C142.672 80 142.609 79.9219 142.609 79.7656L142.656 46.7891C142.656 46.6641 142.734 46.6016 142.891 46.6016H148.234C148.391 46.6016 148.469 46.6641 148.469 46.7891L148.422 59.8438H155.617V46.7891C155.617 46.6641 155.68 46.6016 155.805 46.6016H161.148C161.305 46.6016 161.383 46.6641 161.383 46.7891L161.477 79.7656C161.477 79.9219 161.398 80 161.242 80H155.852C155.695 80 155.617 79.9219 155.617 79.7656V65.6562H148.422V79.7656C148.422 79.9219 148.359 80 148.234 80ZM174.273 80.4688C172.57 80.4688 171 80.0312 169.562 79.1562C168.141 78.2812 166.992 77.1172 166.117 75.6641C165.258 74.1953 164.828 72.5859 164.828 70.8359L164.875 55.625C164.875 53.8438 165.305 52.2422 166.164 50.8203C167.008 49.3828 168.148 48.2344 169.586 47.375C171.023 46.5 172.586 46.0625 174.273 46.0625C176.023 46.0625 177.594 46.4922 178.984 47.3516C180.391 48.2109 181.516 49.3672 182.359 50.8203C183.219 52.2578 183.648 53.8594 183.648 55.625L183.695 70.8359C183.695 72.5859 183.273 74.1875 182.43 75.6406C181.57 77.1094 180.43 78.2812 179.008 79.1562C177.586 80.0312 176.008 80.4688 174.273 80.4688ZM174.273 74.6797C175.242 74.6797 176.086 74.2891 176.805 73.5078C177.523 72.7109 177.883 71.8203 177.883 70.8359L177.836 55.625C177.836 54.5625 177.5 53.6641 176.828 52.9297C176.156 52.1953 175.305 51.8281 174.273 51.8281C173.289 51.8281 172.445 52.1875 171.742 52.9062C171.039 53.625 170.688 54.5312 170.688 55.625V70.8359C170.688 71.8828 171.039 72.7891 171.742 73.5547C172.445 74.3047 173.289 74.6797 174.273 74.6797ZM196.164 80.4688C194.477 80.4688 192.914 80.0312 191.477 79.1562C190.039 78.2812 188.891 77.1094 188.031 75.6406C187.188 74.1562 186.766 72.5391 186.766 70.7891L186.859 46.7891C186.859 46.6641 186.922 46.6016 187.047 46.6016H192.438C192.562 46.6016 192.625 46.6641 192.625 46.7891V70.7891C192.625 71.8672 192.969 72.7891 193.656 73.5547C194.344 74.3047 195.18 74.6797 196.164 74.6797C197.195 74.6797 198.055 74.3047 198.742 73.5547C199.43 72.7891 199.773 71.8672 199.773 70.7891V46.7891C199.773 46.6641 199.836 46.6016 199.961 46.6016H205.352C205.477 46.6016 205.539 46.6641 205.539 46.7891L205.633 70.7891C205.633 72.5547 205.211 74.1797 204.367 75.6641C203.508 77.1328 202.367 78.3047 200.945 79.1797C199.523 80.0391 197.93 80.4688 196.164 80.4688ZM230.758 80.4688C229.055 80.4688 227.484 80.0312 226.047 79.1562C224.625 78.2812 223.477 77.1172 222.602 75.6641C221.742 74.1953 221.312 72.5859 221.312 70.8359L221.359 55.625C221.359 53.8438 221.789 52.2422 222.648 50.8203C223.492 49.3828 224.633 48.2344 226.07 47.375C227.508 46.5 229.07 46.0625 230.758 46.0625C232.508 46.0625 234.078 46.4922 235.469 47.3516C236.875 48.2109 238 49.3672 238.844 50.8203C239.703 52.2578 240.133 53.8594 240.133 55.625L240.18 70.8359C240.18 72.5859 239.758 74.1875 238.914 75.6406C238.055 77.1094 236.914 78.2812 235.492 79.1562C234.07 80.0312 232.492 80.4688 230.758 80.4688ZM230.758 74.6797C231.727 74.6797 232.57 74.2891 233.289 73.5078C234.008 72.7109 234.367 71.8203 234.367 70.8359L234.32 55.625C234.32 54.5625 233.984 53.6641 233.312 52.9297C232.641 52.1953 231.789 51.8281 230.758 51.8281C229.773 51.8281 228.93 52.1875 228.227 52.9062C227.523 53.625 227.172 54.5312 227.172 55.625V70.8359C227.172 71.8828 227.523 72.7891 228.227 73.5547C228.93 74.3047 229.773 74.6797 230.758 74.6797ZM272.078 83.0703L268.773 79.7188C267.602 80.2188 266.398 80.4688 265.164 80.4688C263.461 80.4688 261.898 80.0391 260.477 79.1797C259.039 78.3203 257.883 77.1562 257.008 75.6875C256.148 74.2031 255.719 72.5859 255.719 70.8359L255.766 55.625C255.766 53.9219 256.188 52.3438 257.031 50.8906C257.859 49.4375 258.984 48.2734 260.406 47.3984C261.828 46.5078 263.414 46.0625 265.164 46.0625C266.867 46.0625 268.43 46.4844 269.852 47.3281C271.273 48.1875 272.406 49.3359 273.25 50.7734C274.109 52.2109 274.539 53.8281 274.539 55.625L274.586 70.8359C274.586 71.7578 274.453 72.6562 274.188 73.5312C273.938 74.3906 273.602 75.1875 273.18 75.9219L276.156 78.9453C276.312 79.0703 276.328 79.1797 276.203 79.2734L272.43 83.0703C272.32 83.1641 272.203 83.1641 272.078 83.0703ZM265.164 74.6797C266.258 74.6797 267.133 74.2734 267.789 73.4609C268.445 72.6328 268.773 71.7578 268.773 70.8359L268.727 55.625C268.727 54.5938 268.391 53.7031 267.719 52.9531C267.047 52.2031 266.195 51.8281 265.164 51.8281C264.086 51.8281 263.219 52.2109 262.562 52.9766C261.906 53.7422 261.578 54.625 261.578 55.625V70.8359C261.578 71.9922 261.953 72.9219 262.703 73.625C263.453 74.3281 264.273 74.6797 265.164 74.6797ZM287.477 80.4688C285.789 80.4688 284.227 80.0312 282.789 79.1562C281.352 78.2812 280.203 77.1094 279.344 75.6406C278.5 74.1562 278.078 72.5391 278.078 70.7891L278.172 46.7891C278.172 46.6641 278.234 46.6016 278.359 46.6016H283.75C283.875 46.6016 283.938 46.6641 283.938 46.7891V70.7891C283.938 71.8672 284.281 72.7891 284.969 73.5547C285.656 74.3047 286.492 74.6797 287.477 74.6797C288.508 74.6797 289.367 74.3047 290.055 73.5547C290.742 72.7891 291.086 71.8672 291.086 70.7891V46.7891C291.086 46.6641 291.148 46.6016 291.273 46.6016H296.664C296.789 46.6016 296.852 46.6641 296.852 46.7891L296.945 70.7891C296.945 72.5547 296.523 74.1797 295.68 75.6641C294.82 77.1328 293.68 78.3047 292.258 79.1797C290.836 80.0391 289.242 80.4688 287.477 80.4688ZM316.422 80H300.906C300.781 80 300.719 79.9219 300.719 79.7656L300.766 46.7891C300.766 46.6641 300.828 46.6016 300.953 46.6016H316.375C316.5 46.6016 316.562 46.6797 316.562 46.8359V52.2031C316.562 52.3281 316.5 52.3906 316.375 52.3906H306.531V59.8906H316.375C316.5 59.8906 316.562 59.9531 316.562 60.0781L316.609 65.5156C316.609 65.6406 316.547 65.7031 316.422 65.7031H306.531V74.0938H316.422C316.547 74.0938 316.609 74.1719 316.609 74.3281V79.8125C316.609 79.9375 316.547 80 316.422 80ZM349.141 83.0703L345.836 79.7188C344.664 80.2188 343.461 80.4688 342.227 80.4688C340.523 80.4688 338.961 80.0391 337.539 79.1797C336.102 78.3203 334.945 77.1562 334.07 75.6875C333.211 74.2031 332.781 72.5859 332.781 70.8359L332.828 55.625C332.828 53.9219 333.25 52.3438 334.094 50.8906C334.922 49.4375 336.047 48.2734 337.469 47.3984C338.891 46.5078 340.477 46.0625 342.227 46.0625C343.93 46.0625 345.492 46.4844 346.914 47.3281C348.336 48.1875 349.469 49.3359 350.312 50.7734C351.172 52.2109 351.602 53.8281 351.602 55.625L351.648 70.8359C351.648 71.7578 351.516 72.6562 351.25 73.5312C351 74.3906 350.664 75.1875 350.242 75.9219L353.219 78.9453C353.375 79.0703 353.391 79.1797 353.266 79.2734L349.492 83.0703C349.383 83.1641 349.266 83.1641 349.141 83.0703ZM342.227 74.6797C343.32 74.6797 344.195 74.2734 344.852 73.4609C345.508 72.6328 345.836 71.7578 345.836 70.8359L345.789 55.625C345.789 54.5938 345.453 53.7031 344.781 52.9531C344.109 52.2031 343.258 51.8281 342.227 51.8281C341.148 51.8281 340.281 52.2109 339.625 52.9766C338.969 53.7422 338.641 54.625 338.641 55.625V70.8359C338.641 71.9922 339.016 72.9219 339.766 73.625C340.516 74.3281 341.336 74.6797 342.227 74.6797ZM364.539 80.4688C362.852 80.4688 361.289 80.0312 359.852 79.1562C358.414 78.2812 357.266 77.1094 356.406 75.6406C355.562 74.1562 355.141 72.5391 355.141 70.7891L355.234 46.7891C355.234 46.6641 355.297 46.6016 355.422 46.6016H360.812C360.938 46.6016 361 46.6641 361 46.7891V70.7891C361 71.8672 361.344 72.7891 362.031 73.5547C362.719 74.3047 363.555 74.6797 364.539 74.6797C365.57 74.6797 366.43 74.3047 367.117 73.5547C367.805 72.7891 368.148 71.8672 368.148 70.7891V46.7891C368.148 46.6641 368.211 46.6016 368.336 46.6016H373.727C373.852 46.6016 373.914 46.6641 373.914 46.7891L374.008 70.7891C374.008 72.5547 373.586 74.1797 372.742 75.6641C371.883 77.1328 370.742 78.3047 369.32 79.1797C367.898 80.0391 366.305 80.4688 364.539 80.4688ZM393.484 80H377.969C377.844 80 377.781 79.9219 377.781 79.7656L377.828 46.7891C377.828 46.6641 377.891 46.6016 378.016 46.6016H393.438C393.562 46.6016 393.625 46.6797 393.625 46.8359V52.2031C393.625 52.3281 393.562 52.3906 393.438 52.3906H383.594V59.8906H393.438C393.562 59.8906 393.625 59.9531 393.625 60.0781L393.672 65.5156C393.672 65.6406 393.609 65.7031 393.484 65.7031H383.594V74.0938H393.484C393.609 74.0938 393.672 74.1719 393.672 74.3281V79.8125C393.672 79.9375 393.609 80 393.484 80ZM403.562 80H398.125C398 80 397.938 79.9219 397.938 79.7656L398.031 46.7891C398.031 46.6641 398.094 46.6016 398.219 46.6016H407.922C409.656 46.6016 411.25 47.0234 412.703 47.8672C414.156 48.7109 415.312 49.8438 416.172 51.2656C417.047 52.6875 417.484 54.2969 417.484 56.0938C417.484 57.2656 417.305 58.3281 416.945 59.2812C416.586 60.2344 416.164 61.0391 415.68 61.6953C415.211 62.3516 414.781 62.8359 414.391 63.1484C416.125 65.0703 416.992 67.3281 416.992 69.9219L417.039 79.7656C417.039 79.9219 416.961 80 416.805 80H411.367C411.242 80 411.18 79.9531 411.18 79.8594V69.9219C411.18 68.7656 410.773 67.7656 409.961 66.9219C409.148 66.0781 408.148 65.6562 406.961 65.6562H403.797L403.75 79.7656C403.75 79.9219 403.688 80 403.562 80ZM407.922 52.3438H403.797V59.8906H407.922C408.906 59.8906 409.781 59.5234 410.547 58.7891C411.328 58.0547 411.719 57.1562 411.719 56.0938C411.719 55.0781 411.344 54.2031 410.594 53.4688C409.844 52.7188 408.953 52.3438 407.922 52.3438ZM426.766 80H421.328C421.172 80 421.094 79.9219 421.094 79.7656L421.141 46.7891C421.141 46.6641 421.203 46.6016 421.328 46.6016H426.719C426.844 46.6016 426.906 46.6641 426.906 46.7891L426.953 79.7656C426.953 79.9219 426.891 80 426.766 80ZM429.555 79.7656L435.508 46.7891C435.539 46.6641 435.617 46.6016 435.742 46.6016H442.703C442.828 46.6016 442.906 46.6641 442.938 46.7891L448.656 79.7656C448.672 79.9219 448.609 80 448.469 80H443.148C442.992 80 442.906 79.9219 442.891 79.7656L442.375 76.25H435.836L435.32 79.7656C435.305 79.9219 435.227 80 435.086 80H429.742C429.617 80 429.555 79.9219 429.555 79.7656ZM438.953 57.6406L436.797 71.1172H441.414L439.445 57.6406L439.164 55.8594L438.953 57.6406ZM459.555 71.1641H454.234C454.062 71.1641 453.977 71.1016 453.977 70.9766V68.375C453.977 67.0938 454.273 65.8125 454.867 64.5312C455.461 63.2344 456.273 62.0703 457.305 61.0391C457.789 60.5547 458.203 60.1328 458.547 59.7734C458.906 59.3984 459.195 59.0781 459.414 58.8125C459.867 58.2812 460.156 57.7969 460.281 57.3594C460.406 56.9062 460.469 56.375 460.469 55.7656C460.469 54.6406 460.133 53.7031 459.461 52.9531C458.789 52.2031 457.938 51.8281 456.906 51.8281C455.891 51.8281 455.039 52.2031 454.352 52.9531C453.664 53.7031 453.32 54.6406 453.32 55.7656V59.2578C453.32 59.3828 453.258 59.4453 453.133 59.4453H447.695C447.57 59.4453 447.508 59.3828 447.508 59.2578V55.7656C447.508 53.9688 447.938 52.3359 448.797 50.8672C449.641 49.3984 450.773 48.2344 452.195 47.375C453.617 46.5 455.188 46.0625 456.906 46.0625C458.641 46.0625 460.219 46.4922 461.641 47.3516C463.062 48.2109 464.188 49.3828 465.016 50.8672C465.859 52.3359 466.281 53.9688 466.281 55.7656C466.281 56.7812 466.172 57.7109 465.953 58.5547C465.719 59.3672 465.297 60.2188 464.688 61.1094C464.078 61.9844 463.18 63.0781 461.992 64.3906C461.195 65.2031 460.625 65.9297 460.281 66.5703C459.953 67.2109 459.789 67.9141 459.789 68.6797V70.9766C459.789 71.1016 459.711 71.1641 459.555 71.1641ZM459.555 80H454.234C454.062 80 453.977 79.9219 453.977 79.7656V74.4219C453.977 74.2969 454.062 74.2344 454.234 74.2344H459.555C459.711 74.2344 459.789 74.2969 459.789 74.4219V79.7656C459.789 79.9219 459.711 80 459.555 80Z" fill="#FFFEF0"/>
</svg>
