<svg width="433" height="144" viewBox="0 0 433 144" fill="none" xmlns="http://www.w3.org/2000/svg">
<rect x="67.6172" y="47.2721" width="295" height="83" rx="10" transform="rotate(-2.03815 67.6172 47.2721)" fill="#92C046"/>
<path d="M93.0312 106H85.8437C85.6354 106 85.5312 105.896 85.5312 105.688L85.6562 61.7188C85.6562 61.5521 85.7395 61.4688 85.9062 61.4688H98.2187C102.135 61.4688 105.229 62.6667 107.5 65.0625C109.792 67.4375 110.937 70.6771 110.937 74.7812C110.937 77.7812 110.344 80.3958 109.156 82.625C107.948 84.8333 106.385 86.5417 104.469 87.75C102.552 88.9583 100.469 89.5625 98.2187 89.5625H93.3437V105.688C93.3437 105.896 93.2395 106 93.0312 106ZM98.2187 69.0625L93.3437 69.125V81.8125H98.2187C99.5729 81.8125 100.75 81.1667 101.75 79.875C102.75 78.5625 103.25 76.8646 103.25 74.7812C103.25 73.1146 102.802 71.75 101.906 70.6875C101.01 69.6042 99.7812 69.0625 98.2187 69.0625ZM122.281 106H115.031C114.865 106 114.781 105.896 114.781 105.688L114.906 61.7188C114.906 61.5521 114.99 61.4688 115.156 61.4688H128.094C130.406 61.4688 132.531 62.0312 134.469 63.1562C136.406 64.2812 137.948 65.7917 139.094 67.6875C140.26 69.5833 140.844 71.7292 140.844 74.125C140.844 75.6875 140.604 77.1042 140.125 78.375C139.646 79.6458 139.083 80.7188 138.437 81.5938C137.812 82.4688 137.24 83.1146 136.719 83.5312C139.031 86.0938 140.187 89.1042 140.187 92.5625L140.25 105.688C140.25 105.896 140.146 106 139.937 106H132.687C132.521 106 132.437 105.938 132.437 105.812V92.5625C132.437 91.0208 131.896 89.6875 130.812 88.5625C129.729 87.4375 128.396 86.875 126.812 86.875H122.594L122.531 105.688C122.531 105.896 122.448 106 122.281 106ZM128.094 69.125H122.594V79.1875H128.094C129.406 79.1875 130.573 78.6979 131.594 77.7188C132.635 76.7396 133.156 75.5417 133.156 74.125C133.156 72.7708 132.656 71.6042 131.656 70.625C130.656 69.625 129.469 69.125 128.094 69.125ZM157.5 106.625C155.229 106.625 153.135 106.042 151.219 104.875C149.323 103.708 147.792 102.156 146.625 100.219C145.479 98.2604 144.906 96.1146 144.906 93.7812L144.969 73.5C144.969 71.125 145.542 68.9896 146.687 67.0938C147.812 65.1771 149.333 63.6458 151.25 62.5C153.167 61.3333 155.25 60.75 157.5 60.75C159.833 60.75 161.927 61.3229 163.781 62.4688C165.656 63.6146 167.156 65.1562 168.281 67.0938C169.427 69.0104 170 71.1458 170 73.5L170.062 93.7812C170.062 96.1146 169.5 98.25 168.375 100.188C167.229 102.146 165.708 103.708 163.812 104.875C161.917 106.042 159.812 106.625 157.5 106.625ZM157.5 98.9062C158.792 98.9062 159.917 98.3854 160.875 97.3438C161.833 96.2812 162.312 95.0938 162.312 93.7812L162.25 73.5C162.25 72.0833 161.802 70.8854 160.906 69.9062C160.01 68.9271 158.875 68.4375 157.5 68.4375C156.187 68.4375 155.062 68.9167 154.125 69.875C153.187 70.8333 152.719 72.0417 152.719 73.5V93.7812C152.719 95.1771 153.187 96.3854 154.125 97.4062C155.062 98.4062 156.187 98.9062 157.5 98.9062ZM182.406 106H175.156C174.99 106 174.906 105.896 174.906 105.688L175.031 61.7188C175.031 61.5521 175.115 61.4688 175.281 61.4688H183.094C183.26 61.4688 183.406 61.5521 183.531 61.7188L189.375 70.1562L195.187 61.7188C195.312 61.5521 195.469 61.4688 195.656 61.4688H203.5C203.687 61.4688 203.781 61.5521 203.781 61.7188L203.906 105.688C203.906 105.896 203.823 106 203.656 106H196.406C196.24 106 196.156 105.896 196.156 105.688L196.094 73.0312L189.375 82.7812L182.719 73.0312L182.656 105.688C182.656 105.896 182.573 106 182.406 106ZM221.125 106.625C218.854 106.625 216.76 106.042 214.844 104.875C212.948 103.708 211.417 102.156 210.25 100.219C209.104 98.2604 208.531 96.1146 208.531 93.7812L208.594 73.5C208.594 71.125 209.167 68.9896 210.312 67.0938C211.437 65.1771 212.958 63.6458 214.875 62.5C216.792 61.3333 218.875 60.75 221.125 60.75C223.458 60.75 225.552 61.3229 227.406 62.4688C229.281 63.6146 230.781 65.1562 231.906 67.0938C233.052 69.0104 233.625 71.1458 233.625 73.5L233.687 93.7812C233.687 96.1146 233.125 98.25 232 100.188C230.854 102.146 229.333 103.708 227.437 104.875C225.542 106.042 223.437 106.625 221.125 106.625ZM221.125 98.9062C222.417 98.9062 223.542 98.3854 224.5 97.3438C225.458 96.2812 225.937 95.0938 225.937 93.7812L225.875 73.5C225.875 72.0833 225.427 70.8854 224.531 69.9062C223.635 68.9271 222.5 68.4375 221.125 68.4375C219.812 68.4375 218.687 68.9167 217.75 69.875C216.812 70.8333 216.344 72.0417 216.344 73.5V93.7812C216.344 95.1771 216.812 96.3854 217.75 97.4062C218.687 98.4062 219.812 98.9062 221.125 98.9062ZM250.312 106.625C248 106.625 245.885 106.042 243.969 104.875C242.073 103.708 240.562 102.146 239.437 100.188C238.333 98.2083 237.781 96.0104 237.781 93.5938L237.844 73.625C237.844 71.25 238.385 69.1042 239.469 67.1875C240.552 65.25 242.042 63.6979 243.937 62.5312C245.854 61.3438 247.979 60.75 250.312 60.75C252.687 60.75 254.802 61.3229 256.656 62.4688C258.531 63.6146 260.021 65.1667 261.125 67.125C262.25 69.0625 262.812 71.2292 262.812 73.625V76.5625C262.812 76.7292 262.729 76.8125 262.562 76.8125H255.375C255.208 76.8125 255.125 76.7292 255.125 76.5625V73.625C255.125 72.2083 254.667 70.9896 253.75 69.9688C252.833 68.9479 251.687 68.4375 250.312 68.4375C248.792 68.4375 247.625 68.9583 246.812 70C246 71.0417 245.594 72.25 245.594 73.625V93.5938C245.594 95.1562 246.052 96.4375 246.969 97.4375C247.885 98.4167 249 98.9062 250.312 98.9062C251.687 98.9062 252.833 98.3646 253.75 97.2812C254.667 96.1771 255.125 94.9479 255.125 93.5938V90.625C255.125 90.4583 255.208 90.375 255.375 90.375H262.625C262.792 90.375 262.875 90.4583 262.875 90.625V93.5938C262.875 95.9896 262.312 98.1771 261.187 100.156C260.042 102.115 258.531 103.688 256.656 104.875C254.781 106.042 252.667 106.625 250.312 106.625ZM279.375 106.625C277.104 106.625 275.01 106.042 273.094 104.875C271.198 103.708 269.667 102.156 268.5 100.219C267.354 98.2604 266.781 96.1146 266.781 93.7812L266.844 73.5C266.844 71.125 267.417 68.9896 268.562 67.0938C269.687 65.1771 271.208 63.6458 273.125 62.5C275.042 61.3333 277.125 60.75 279.375 60.75C281.708 60.75 283.802 61.3229 285.656 62.4688C287.531 63.6146 289.031 65.1562 290.156 67.0938C291.302 69.0104 291.875 71.1458 291.875 73.5L291.937 93.7812C291.937 96.1146 291.375 98.25 290.25 100.188C289.104 102.146 287.583 103.708 285.687 104.875C283.792 106.042 281.687 106.625 279.375 106.625ZM279.375 98.9062C280.667 98.9062 281.792 98.3854 282.75 97.3438C283.708 96.2812 284.187 95.0938 284.187 93.7812L284.125 73.5C284.125 72.0833 283.677 70.8854 282.781 69.9062C281.885 68.9271 280.75 68.4375 279.375 68.4375C278.062 68.4375 276.937 68.9167 276 69.875C275.062 70.8333 274.594 72.0417 274.594 73.5V93.7812C274.594 95.1771 275.062 96.3854 276 97.4062C276.937 98.4062 278.062 98.9062 279.375 98.9062ZM317.719 106H297.031C296.865 106 296.781 105.896 296.781 105.688L296.844 61.7188C296.844 61.5521 296.927 61.4688 297.094 61.4688H317.656C317.823 61.4688 317.906 61.5729 317.906 61.7812V68.9375C317.906 69.1042 317.823 69.1875 317.656 69.1875H304.531V79.1875H317.656C317.823 79.1875 317.906 79.2708 317.906 79.4375L317.969 86.6875C317.969 86.8542 317.885 86.9375 317.719 86.9375H304.531V98.125H317.719C317.885 98.125 317.969 98.2292 317.969 98.4375V105.75C317.969 105.917 317.885 106 317.719 106ZM334.531 106.625C332.26 106.625 330.167 106.042 328.25 104.875C326.354 103.708 324.833 102.156 323.687 100.219C322.562 98.2604 322 96.1146 322 93.7812V90.8438C322 90.6146 322.104 90.5 322.312 90.5H329.5C329.667 90.5 329.75 90.6146 329.75 90.8438V93.7812C329.75 95.1771 330.219 96.3854 331.156 97.4062C332.094 98.4062 333.219 98.9062 334.531 98.9062C335.865 98.9062 337 98.3958 337.937 97.375C338.875 96.3333 339.344 95.1354 339.344 93.7812C339.344 92.2188 338.323 90.8542 336.281 89.6875C335.948 89.4792 335.51 89.2292 334.969 88.9375C334.448 88.625 333.823 88.2708 333.094 87.875C332.365 87.4792 331.656 87.0938 330.969 86.7188C330.281 86.3229 329.615 85.9479 328.969 85.5938C326.635 84.2188 324.896 82.5 323.75 80.4375C322.625 78.3542 322.062 76.0208 322.062 73.4375C322.062 71.0625 322.646 68.9167 323.812 67C324.979 65.1042 326.5 63.6042 328.375 62.5C330.271 61.375 332.323 60.8125 334.531 60.8125C336.802 60.8125 338.885 61.375 340.781 62.5C342.677 63.6458 344.187 65.1667 345.312 67.0625C346.458 68.9583 347.031 71.0833 347.031 73.4375V78.6875C347.031 78.8542 346.948 78.9375 346.781 78.9375H339.594C339.427 78.9375 339.344 78.8542 339.344 78.6875L339.281 73.4375C339.281 71.9375 338.812 70.7188 337.875 69.7812C336.937 68.8438 335.823 68.375 334.531 68.375C333.219 68.375 332.094 68.875 331.156 69.875C330.219 70.875 329.75 72.0625 329.75 73.4375C329.75 74.8333 330.042 76 330.625 76.9375C331.229 77.875 332.323 78.7708 333.906 79.625C334.073 79.7083 334.458 79.9167 335.062 80.25C335.667 80.5833 336.333 80.9583 337.062 81.375C337.812 81.7708 338.49 82.1354 339.094 82.4688C339.698 82.7812 340.062 82.9688 340.187 83.0312C342.312 84.2188 343.99 85.6771 345.219 87.4062C346.469 89.1354 347.094 91.2604 347.094 93.7812C347.094 96.2188 346.531 98.4062 345.406 100.344C344.26 102.281 342.74 103.812 340.844 104.938C338.948 106.062 336.844 106.625 334.531 106.625Z" fill="#FFFEF0"/>
<path d="M242.719 113.062H249.125C249.271 113.062 249.396 112.979 249.5 112.812L255.469 101.75C255.552 101.562 255.469 101.469 255.219 101.469H247.906C247.719 101.469 247.615 101.562 247.594 101.75L242.469 112.812C242.427 112.979 242.51 113.062 242.719 113.062Z" fill="#FFFEF0"/>
<path d="M284.5 58.4688C283.271 58.4688 282.167 58.2396 281.188 57.7812C280.354 57.4271 279.469 57.0104 278.531 56.5312C277.615 56.0312 276.833 55.7812 276.188 55.7812C275.375 55.7812 274.75 55.9896 274.313 56.4062C273.896 56.8021 273.688 57.3021 273.688 57.9062C273.688 58.0729 273.604 58.1562 273.438 58.1562H267.656C267.49 58.1562 267.406 58.0729 267.406 57.9062C267.406 56.8229 267.74 55.6771 268.406 54.4688C269.073 53.3021 270.01 52.3125 271.219 51.5C272.427 50.6875 273.885 50.2812 275.594 50.2812C276.823 50.2812 277.917 50.4896 278.875 50.9062C279.625 51.2396 280.427 51.6354 281.281 52.0938C282.135 52.5521 282.823 52.7812 283.344 52.7812C283.948 52.7812 284.469 52.5938 284.906 52.2188C285.365 51.8229 285.594 51.2188 285.594 50.4062C285.594 50.2396 285.677 50.1562 285.844 50.1562H291.594C291.76 50.1562 291.844 50.2396 291.844 50.4062C291.844 52.1562 291.5 53.625 290.813 54.8125C290.104 56.0208 289.177 56.9375 288.031 57.5625C286.906 58.1667 285.729 58.4688 284.5 58.4688Z" fill="#FFFEF0"/>
<path d="M53.9694 82.7749L4.03191 85.2751" stroke="#92C046" stroke-width="7" stroke-linecap="round"/>
<path d="M54.9194 101.751L30.4008 111.99" stroke="#92C046" stroke-width="7" stroke-linecap="round"/>
<path d="M54.018 63.7486L28.5992 56.01" stroke="#92C046" stroke-width="7" stroke-linecap="round"/>
<path d="M379.022 85.0377L428.977 82.9199" stroke="#92C046" stroke-width="7" stroke-linecap="round"/>
<path d="M379.827 104.021L405.186 111.954" stroke="#92C046" stroke-width="7" stroke-linecap="round"/>
<path d="M377.218 66.0971L401.815 56.0463" stroke="#92C046" stroke-width="7" stroke-linecap="round"/>
</svg>
