<svg width="81" height="81" viewBox="0 0 81 81" fill="none" xmlns="http://www.w3.org/2000/svg">
<g id="Conta">
<circle id="Ellipse 4" cx="40.5" cy="40.5" r="40.5" fill="#FFFEF0"/>
<g id="&#195;&#173;cone">
<circle id="Ellipse 3" cx="40.276" cy="29.4773" r="9.86864" stroke="#92C046" stroke-width="4"/>
<path id="Subtract" fill-rule="evenodd" clip-rule="evenodd" d="M35.3781 48.929H45.6219C53.2266 48.929 59.3913 55.0937 59.3913 62.6983C59.3913 62.8489 59.3889 62.9989 59.3841 63.1483C59.3443 64.3867 60.2634 65.5311 61.5024 65.5311C62.4613 65.5311 63.2901 64.8347 63.3528 63.8778C63.3783 63.4879 63.3913 63.0947 63.3913 62.6983C63.3913 52.8846 55.4357 44.929 45.6219 44.929H35.3781C25.5643 44.929 17.6087 52.8846 17.6087 62.6983C17.6087 63.0947 17.6217 63.4879 17.6472 63.8778C17.7099 64.8347 18.5387 65.5311 19.4977 65.5311C20.7366 65.5311 21.6557 64.3867 21.6159 63.1483C21.6111 62.9989 21.6087 62.8489 21.6087 62.6983C21.6087 55.0937 27.7735 48.929 35.3781 48.929Z" fill="#92C046"/>
</g>
</g>
</svg>
